<svg width="217" height="46" viewBox="0 0 217 46" fill="none" xmlns="http://www.w3.org/2000/svg">
  <rect x="2" y="2" width="42" height="42" rx="8" fill="#3B82F6" />
  <line x1="23" y1="12" x2="23" y2="34" stroke="white" stroke-width="2.5" stroke-linecap="round" />
  <path d="M23 14 Q18 18 23 23 Q28 28 23 32" stroke="white" stroke-width="2" fill="none" stroke-linecap="round" />
  <path d="M23 14 Q28 18 23 23 Q18 28 23 32" stroke="white" stroke-width="2" fill="none" stroke-linecap="round" />
  <path d="M16 16 Q12 15 11 18 Q11 20 14 21 Q17 21 19 19" stroke="white" stroke-width="1.5" fill="none" />
  <path d="M30 16 Q34 15 35 18 Q35 20 32 21 Q29 21 27 19" stroke="white" stroke-width="1.5" fill="none" />
  <circle cx="23" cy="11" r="2.5" fill="white" />
  <text x="58" y="32" fill="#1E293B" font-family="system-ui, -apple-system, sans-serif" font-size="28" font-weight="600">MedAura</text>
  <text x="169" y="32" fill="#3B82F6" font-family="system-ui, -apple-system, sans-serif" font-size="28" font-weight="600">+</text>
</svg>